<svg width="138" height="23" viewBox="0 0 138 23" fill="none" xmlns="http://www.w3.org/2000/svg">
<g filter="url(#filter0_f_527_3)">
<path d="M136.669 3.74314C137.079 3.37368 137.113 2.74139 136.743 2.33088C136.374 1.92037 135.742 1.88709 135.331 2.25655L136.669 3.74314ZM71 21L71 22L71 21ZM1.85858 2.00988C1.31185 2.08799 0.931949 2.59452 1.01005 3.14125L2.2828 12.0508C2.36091 12.5975 2.86744 12.9774 3.41417 12.8993C3.96091 12.8212 4.34081 12.3147 4.2627 11.768L3.13137 3.84837L11.051 2.71703C11.5977 2.63893 11.9776 2.1324 11.8995 1.58566C11.8214 1.03893 11.3149 0.659029 10.7681 0.737131L1.85858 2.00988ZM136 2.99985C135.331 2.25655 135.331 2.25626 135.332 2.25603C135.332 2.25604 135.332 2.25588 135.332 2.25591C135.332 2.25597 135.331 2.25631 135.331 2.25691C135.329 2.25811 135.327 2.2604 135.323 2.26375C135.315 2.27045 135.303 2.2814 135.286 2.29647C135.251 2.32662 135.197 2.37324 135.122 2.43524C134.974 2.55924 134.747 2.74475 134.44 2.98302C133.825 3.45957 132.89 4.14712 131.624 4.97567C129.093 6.6327 125.239 8.85388 119.985 11.0791C109.48 15.5283 93.3625 20 71 20L71 22C93.6375 22 110.02 17.4717 120.765 12.9207C126.136 10.6459 130.095 8.36707 132.72 6.64907C134.032 5.7901 135.011 5.0714 135.666 4.56355C135.993 4.30963 136.24 4.10842 136.406 3.96875C136.49 3.89891 136.553 3.84446 136.597 3.80649C136.619 3.7875 136.636 3.77264 136.648 3.76204C136.654 3.75673 136.659 3.7525 136.662 3.74934C136.664 3.74776 136.665 3.74646 136.666 3.74542C136.667 3.7449 136.668 3.74433 136.668 3.74407C136.668 3.74357 136.669 3.74314 136 2.99985ZM71 20C48.6361 20 31.5083 15.5276 19.986 11.0673C14.2241 8.83691 9.86291 6.60907 6.94927 4.94412C5.49248 4.11166 4.3977 3.42 3.67081 2.93922C3.30737 2.69883 3.03593 2.51118 2.85721 2.38502C2.76785 2.32194 2.70167 2.27424 2.65877 2.24301C2.63732 2.2274 2.6217 2.2159 2.6119 2.20866C2.607 2.20504 2.60356 2.20248 2.60157 2.201C2.60058 2.20027 2.59996 2.1998 2.59969 2.1996C2.59956 2.19951 2.59964 2.19956 2.59958 2.19951C2.59974 2.19964 2.60001 2.19984 2 2.99983C1.4 3.79983 1.40044 3.80016 1.40098 3.80056C1.40128 3.80079 1.4019 3.80126 1.40251 3.80171C1.40371 3.80261 1.40528 3.80378 1.40722 3.80522C1.41109 3.80811 1.41643 3.81207 1.42324 3.8171C1.43686 3.82716 1.45634 3.84149 1.48167 3.85993C1.53234 3.89682 1.60642 3.95019 1.70383 4.01895C1.89865 4.15647 2.18677 4.35554 2.56747 4.60734C3.32886 5.11094 4.46065 5.82554 5.95698 6.6806C8.9496 8.39068 13.4009 10.6629 19.264 12.9325C30.9917 17.4723 48.3639 22 71 22L71 20Z" fill="#E33CD5"/>
</g>
<defs>
<filter id="filter0_f_527_3" x="0.5" y="0.226929" width="137" height="22.2731" filterUnits="userSpaceOnUse" color-interpolation-filters="sRGB">
<feFlood flood-opacity="0" result="BackgroundImageFix"/>
<feBlend mode="normal" in="SourceGraphic" in2="BackgroundImageFix" result="shape"/>
<feGaussianBlur stdDeviation="0.25" result="effect1_foregroundBlur_527_3"/>
</filter>
</defs>
</svg>
