<svg width="138" height="24" viewBox="0 0 138 24" fill="none" xmlns="http://www.w3.org/2000/svg">
<g filter="url(#filter0_f_527_3)">
<path d="M136.669 4.74314C137.079 4.37368 137.113 3.74139 136.743 3.33088C136.374 2.92037 135.742 2.88709 135.331 3.25655L136.669 4.74314ZM71 22L71 23L71 22ZM1.85858 3.00988C1.31185 3.08799 0.931949 3.59452 1.01005 4.14125L2.2828 13.0508C2.36091 13.5975 2.86744 13.9774 3.41417 13.8993C3.96091 13.8212 4.34081 13.3147 4.2627 12.768L3.13137 4.84837L11.051 3.71703C11.5977 3.63893 11.9776 3.1324 11.8995 2.58566C11.8214 2.03893 11.3149 1.65903 10.7681 1.73713L1.85858 3.00988ZM136 3.99985C135.331 3.25655 135.331 3.25626 135.332 3.25603C135.332 3.25604 135.332 3.25588 135.332 3.25591C135.332 3.25597 135.331 3.25631 135.331 3.25691C135.329 3.25811 135.327 3.2604 135.323 3.26375C135.315 3.27045 135.303 3.2814 135.286 3.29647C135.251 3.32662 135.197 3.37324 135.122 3.43524C134.974 3.55924 134.747 3.74475 134.44 3.98302C133.825 4.45957 132.89 5.14712 131.624 5.97567C129.093 7.6327 125.239 9.85388 119.985 12.0791C109.48 16.5283 93.3625 21 71 21L71 23C93.6375 23 110.02 18.4717 120.765 13.9207C126.136 11.6459 130.095 9.36707 132.72 7.64907C134.032 6.7901 135.011 6.0714 135.666 5.56355C135.993 5.30963 136.24 5.10842 136.406 4.96875C136.49 4.89891 136.553 4.84446 136.597 4.80649C136.619 4.7875 136.636 4.77264 136.648 4.76204C136.654 4.75673 136.659 4.7525 136.662 4.74934C136.664 4.74776 136.665 4.74646 136.666 4.74542C136.667 4.7449 136.668 4.74433 136.668 4.74407C136.668 4.74357 136.669 4.74314 136 3.99985ZM71 21C48.6361 21 31.5083 16.5276 19.986 12.0673C14.2241 9.83691 9.86291 7.60907 6.94927 5.94412C5.49248 5.11166 4.3977 4.42 3.67081 3.93922C3.30737 3.69883 3.03593 3.51118 2.85721 3.38502C2.76785 3.32194 2.70167 3.27424 2.65877 3.24301C2.63732 3.2274 2.6217 3.2159 2.6119 3.20866C2.607 3.20504 2.60356 3.20248 2.60157 3.201C2.60058 3.20027 2.59996 3.1998 2.59969 3.1996C2.59956 3.19951 2.59964 3.19956 2.59958 3.19951C2.59974 3.19964 2.60001 3.19984 2 3.99983C1.4 4.79983 1.40044 4.80016 1.40098 4.80056C1.40128 4.80079 1.4019 4.80126 1.40251 4.80171C1.40371 4.80261 1.40528 4.80378 1.40722 4.80522C1.41109 4.80811 1.41643 4.81207 1.42324 4.8171C1.43686 4.82716 1.45634 4.84149 1.48167 4.85993C1.53234 4.89682 1.60642 4.95019 1.70383 5.01895C1.89865 5.15647 2.18677 5.35554 2.56747 5.60734C3.32886 6.11094 4.46065 6.82554 5.95698 7.6806C8.9496 9.39068 13.4009 11.6629 19.264 13.9325C30.9917 18.4723 48.3639 23 71 23L71 21Z" fill="#E33CD5"/>
</g>
<defs>
<filter id="filter0_f_527_3" x="0" y="0.726929" width="138" height="23.2731" filterUnits="userSpaceOnUse" color-interpolation-filters="sRGB">
<feFlood flood-opacity="0" result="BackgroundImageFix"/>
<feBlend mode="normal" in="SourceGraphic" in2="BackgroundImageFix" result="shape"/>
<feGaussianBlur stdDeviation="0.5" result="effect1_foregroundBlur_527_3"/>
</filter>
</defs>
</svg>
